<svg xmlns="http://www.w3.org/2000/svg" viewBox="0 0 800 500" width="800" height="500" role="img" xmlns:c2pa="http://c2pa.org/manifest"><metadata><c2pa:manifest>AAAWgmp1bWIAAAAeanVtZGMycGEAEQAQgAAAqgA4m3EDYzJwYQAAABZcanVtYgAAAEdqdW1kYzJtYQARABCAAACqADibcQN1cm46YzJwYTo1YjRlYTQ4OS04NDE2LTRmYjctOTM4NS0zNDJiNmJjMzY0M2YAAAADl2p1bWIAAAApanVtZGMyYXMAEQAQgAAAqgA4m3EDYzJwYS5hc3NlcnRpb25zAAAAALxqdW1iAAAARGp1bWRjYm9yABEAEIAAAKoAOJtxE2MycGEuaW5ncmVkaWVudC52MwAAAAAYYzJzaJGq7yx9jRE5HV5k1TX1CXsAAABwY2JvcqNpZGM6Zm9ybWF0bWltYWdlL3N2Zyt4bWxqaW5zdGFuY2VJRHgseG1wOmlpZDowYjdkMmQyZi03N2NhLTQ3NmQtODllZC1iNDc5ZTdlNzQ5MGFscmVsYXRpb25zaGlwaHBhcmVudE9mAAAB4mp1bWIAAABBanVtZGNib3IAEQAQgAAAqgA4m3ETYzJwYS5hY3Rpb25zLnYyAAAAABhjMnNoiktByUvM8fkbELOGyUVuzQAAAZljYm9yomdhY3Rpb25zgqJmYWN0aW9ua2MycGEub3BlbmVkanBhcmFtZXRlcnOha2luZ3JlZGllbnRzgaJjdXJseC1zZWxmI2p1bWJmPWMycGEuYXNzZXJ0aW9ucy9jMnBhLmluZ3JlZGllbnQudjNkaGFzaFggCXPvGi/JD6y5AGlZcOrUzRUYe4mM/7yvilIYaRFQj4ykZmFjdGlvbngdY29tLmFudGhyb3BpYy5jbGF1ZGUucHJvdmlkZWRqcGFyYW1ldGVyc6F4H2NvbS5hbnRocm9waWMub3JpZ2luLWNvbmZpZGVuY2VndW5rbm93bmtkZXNjcmlwdGlvbnhmQ2xhdWRlIHByb3ZpZGVkIHRoaXMgZmlsZSBhdCB0aGUgcmVxdWVzdCBvZiBhIHVzZXIgYW5kIG1heSBoYXZlIGNyZWF0ZWQgb3IgbW9kaWZpZWQgdGhlIGZpbGUgY29udGVudHMubXNvZnR3YXJlQWdlbnShZG5hbWVmQ2xhdWRlcmFsbEFjdGlvbnNJbmNsdWRlZPUAAADIanVtYgAAAEBqdW1kY2JvcgARABCAAACqADibcRNjMnBhLmhhc2guZGF0YQAAAAAYYzJzaPrQa0zKm0MsuwJ99tB/hFQAAACAY2JvcqVjYWxnZnNoYTI1NmNwYWRNAAAAAAAAAAAAAAAAAGRoYXNoWCBZA92MdtaZT5QYTOA3Fu3un+cKsviB1PYCHzT6Nl/8/2RuYW1lbmp1bWJmIG1hbmlmZXN0amV4Y2x1c2lvbnOBomVzdGFydBihZmxlbmd0aBkeBAAAAj5qdW1iAAAAJ2p1bWRjMmNsABEAEIAAAKoAOJtxA2MycGEuY2xhaW0udjIAAAACD2Nib3KlY2FsZ2ZzaGEyNTZpc2lnbmF0dXJleE1zZWxmI2p1bWJmPS9jMnBhL3VybjpjMnBhOjViNGVhNDg5LTg0MTYtNGZiNy05Mzg1LTM0MmI2YmMzNjQzZi9jMnBhLnNpZ25hdHVyZWppbnN0YW5jZUlEeCx4bXA6aWlkOjYxMDIxNmRhLTRhYjUtNGJjZS04ZDM1LWJmNTc2N2VmMzMzOXJjcmVhdGVkX2Fzc2VydGlvbnODomN1cmx4LXNlbGYjanVtYmY9YzJwYS5hc3NlcnRpb25zL2MycGEuaW5ncmVkaWVudC52M2RoYXNoWCAJc+8aL8kPrLkAaVlw6tTNFRh7iYz/vK+KUhhpEVCPjKJjdXJseCpzZWxmI2p1bWJmPWMycGEuYXNzZXJ0aW9ucy9jMnBhLmFjdGlvbnMudjJkaGFzaFggCVzNALFWIgVZ8cRKxG8M5XLS2OSI5gwify6+LhjVpB6iY3VybHgpc2VsZiNqdW1iZj1jMnBhLmFzc2VydGlvbnMvYzJwYS5oYXNoLmRhdGFkaGFzaFggVmV4lglCfwRlcld4ct56Y30Aox4WjJ3Cb5Qi/o6PGaV0Y2xhaW1fZ2VuZXJhdG9yX2luZm+jZG5hbWVvQW50aHJvcGljIEZpbGVzZ3ZlcnNpb25lMS4wLjBrc3BlY1ZlcnNpb25lMi40LjAAABA4anVtYgAAAChqdW1kYzJjcwARABCAAACqADibcQNjMnBhLnNpZ25hdHVyZQAAABAIY2JvctKEWQISogEmGCFZAgowggIGMIIBjaADAgECAhRA5aAK7sI50L64g/oGQgU9Z1UTADAKBggqhkjOPQQDAzBJMRcwFQYDVQQKEw5BbnRocm9waWMsIFBCQzEuMCwGA1UEAxMlQW50aHJvcGljIENvbnRlbnQgQ3JlZGVudGlhbHMgUm9vdCBDQTAeFw0yNjA4MDcxODQzNTZaFw0yODA4MDYxOTQzNTZaMEQxFzAVBgNVBAoTDkFudGhyb3BpYywgUEJDMSkwJwYDVQQDEyBBbnRocm9waWMgQ2xhdWRlIENvbnRlbnQgU2lnbmluZzBZMBMGByqGSM49AgEGCCqGSM49AwEHA0IABJh6CmvLUBgFFNU0vUKlOVtE6djd17L5SuwX0LemFisBM3dkd/3cyjxFA3Qo5S46fX0/ihY0VZ7mfb9KF703t5OjWDBWMA4GA1UdDwEB/wQEAwIHgDAVBgNVHSUEDjAMBgorBgEEAYPoXgIBMAwGA1UdEwEB/wQCMAAwHwYDVR0jBBgwFoAUzlHiBIFOZFsj+OPEz5o+nMHXXMIwCgYIKoZIzj0EAwMDZwAwZAIwMXMdFJ4BetLLVY7ORuE9noqbbAZOZn/aArXyTwFAZfKrPzxF2vPoJNf1+UCdg1XGAjBwX1zd9WGqYkqmL5SFqw1QySjr1zJfpJM9+1rdDwSPLMOPOjKuiXjoU/pUUeG9RwmhY3BhZFkNngAAAAAAAAAAAAAAAAAAAAAAAAAAAAAAAAAAAAAAAAAAAAAAAAAAAAAAAAAAAAAAAAAAAAAAAAAAAAAAAAAAAAAAAAAAAAAAAAAAAAAAAAAAAAAAAAAAAAAAAAAAAAAAAAAAAAAAAAAAAAAAAAAAAAAAAAAAAAAAAAAAAAAAAAAAAAAAAAAAAAAAAAAAAAAAAAAAAAAAAAAAAAAAAAAAAAAAAAAAAAAAAAAAAAAAAAAAAAAAAAAAAAAAAAAAAAAAAAAAAAAAAAAAAAAAAAAAAAAAAAAAAAAAAAAAAAAAAAAAAAAAAAAAAAAAAAAAAAAAAAAAAAAAAAAAAAAAAAAAAAAAAAAAAAAAAAAAAAAAAAAAAAAAAAAAAAAAAAAAAAAAAAAAAAAAAAAAAAAAAAAAAAAAAAAAAAAAAAAAAAAAAAAAAAAAAAAAAAAAAAAAAAAAAAAAAAAAAAAAAAAAAAAAAAAAAAAAAAAAAAAAAAAAAAAAAAAAAAAAAAAAAAAAAAAAAAAAAAAAAAAAAAAAAAAAAAAAAAAAAAAAAAAAAAAAAAAAAAAAAAAAAAAAAAAAAAAAAAAAAAAAAAAAAAAAAAAAAAAAAAAAAAAAAAAAAAAAAAAAAAAAAAAAAAAAAAAAAAAAAAAAAAAAAAAAAAAAAAAAAAAAAAAAAAAAAAAAAAAAAAAAAAAAAAAAAAAAAAAAAAAAAAAAAAAAAAAAAAAAAAAAAAAAAAAAAAAAAAAAAAAAAAAAAAAAAAAAAAAAAAAAAAAAAAAAAAAAAAAAAAAAAAAAAAAAAAAAAAAAAAAAAAAAAAAAAAAAAAAAAAAAAAAAAAAAAAAAAAAAAAAAAAAAAAAAAAAAAAAAAAAAAAAAAAAAAAAAAAAAAAAAAAAAAAAAAAAAAAAAAAAAAAAAAAAAAAAAAAAAAAAAAAAAAAAAAAAAAAAAAAAAAAAAAAAAAAAAAAAAAAAAAAAAAAAAAAAAAAAAAAAAAAAAAAAAAAAAAAAAAAAAAAAAAAAAAAAAAAAAAAAAAAAAAAAAAAAAAAAAAAAAAAAAAAAAAAAAAAAAAAAAAAAAAAAAAAAAAAAAAAAAAAAAAAAAAAAAAAAAAAAAAAAAAAAAAAAAAAAAAAAAAAAAAAAAAAAAAAAAAAAAAAAAAAAAAAAAAAAAAAAAAAAAAAAAAAAAAAAAAAAAAAAAAAAAAAAAAAAAAAAAAAAAAAAAAAAAAAAAAAAAAAAAAAAAAAAAAAAAAAAAAAAAAAAAAAAAAAAAAAAAAAAAAAAAAAAAAAAAAAAAAAAAAAAAAAAAAAAAAAAAAAAAAAAAAAAAAAAAAAAAAAAAAAAAAAAAAAAAAAAAAAAAAAAAAAAAAAAAAAAAAAAAAAAAAAAAAAAAAAAAAAAAAAAAAAAAAAAAAAAAAAAAAAAAAAAAAAAAAAAAAAAAAAAAAAAAAAAAAAAAAAAAAAAAAAAAAAAAAAAAAAAAAAAAAAAAAAAAAAAAAAAAAAAAAAAAAAAAAAAAAAAAAAAAAAAAAAAAAAAAAAAAAAAAAAAAAAAAAAAAAAAAAAAAAAAAAAAAAAAAAAAAAAAAAAAAAAAAAAAAAAAAAAAAAAAAAAAAAAAAAAAAAAAAAAAAAAAAAAAAAAAAAAAAAAAAAAAAAAAAAAAAAAAAAAAAAAAAAAAAAAAAAAAAAAAAAAAAAAAAAAAAAAAAAAAAAAAAAAAAAAAAAAAAAAAAAAAAAAAAAAAAAAAAAAAAAAAAAAAAAAAAAAAAAAAAAAAAAAAAAAAAAAAAAAAAAAAAAAAAAAAAAAAAAAAAAAAAAAAAAAAAAAAAAAAAAAAAAAAAAAAAAAAAAAAAAAAAAAAAAAAAAAAAAAAAAAAAAAAAAAAAAAAAAAAAAAAAAAAAAAAAAAAAAAAAAAAAAAAAAAAAAAAAAAAAAAAAAAAAAAAAAAAAAAAAAAAAAAAAAAAAAAAAAAAAAAAAAAAAAAAAAAAAAAAAAAAAAAAAAAAAAAAAAAAAAAAAAAAAAAAAAAAAAAAAAAAAAAAAAAAAAAAAAAAAAAAAAAAAAAAAAAAAAAAAAAAAAAAAAAAAAAAAAAAAAAAAAAAAAAAAAAAAAAAAAAAAAAAAAAAAAAAAAAAAAAAAAAAAAAAAAAAAAAAAAAAAAAAAAAAAAAAAAAAAAAAAAAAAAAAAAAAAAAAAAAAAAAAAAAAAAAAAAAAAAAAAAAAAAAAAAAAAAAAAAAAAAAAAAAAAAAAAAAAAAAAAAAAAAAAAAAAAAAAAAAAAAAAAAAAAAAAAAAAAAAAAAAAAAAAAAAAAAAAAAAAAAAAAAAAAAAAAAAAAAAAAAAAAAAAAAAAAAAAAAAAAAAAAAAAAAAAAAAAAAAAAAAAAAAAAAAAAAAAAAAAAAAAAAAAAAAAAAAAAAAAAAAAAAAAAAAAAAAAAAAAAAAAAAAAAAAAAAAAAAAAAAAAAAAAAAAAAAAAAAAAAAAAAAAAAAAAAAAAAAAAAAAAAAAAAAAAAAAAAAAAAAAAAAAAAAAAAAAAAAAAAAAAAAAAAAAAAAAAAAAAAAAAAAAAAAAAAAAAAAAAAAAAAAAAAAAAAAAAAAAAAAAAAAAAAAAAAAAAAAAAAAAAAAAAAAAAAAAAAAAAAAAAAAAAAAAAAAAAAAAAAAAAAAAAAAAAAAAAAAAAAAAAAAAAAAAAAAAAAAAAAAAAAAAAAAAAAAAAAAAAAAAAAAAAAAAAAAAAAAAAAAAAAAAAAAAAAAAAAAAAAAAAAAAAAAAAAAAAAAAAAAAAAAAAAAAAAAAAAAAAAAAAAAAAAAAAAAAAAAAAAAAAAAAAAAAAAAAAAAAAAAAAAAAAAAAAAAAAAAAAAAAAAAAAAAAAAAAAAAAAAAAAAAAAAAAAAAAAAAAAAAAAAAAAAAAAAAAAAAAAAAAAAAAAAAAAAAAAAAAAAAAAAAAAAAAAAAAAAAAAAAAAAAAAAAAAAAAAAAAAAAAAAAAAAAAAAAAAAAAAAAAAAAAAAAAAAAAAAAAAAAAAAAAAAAAAAAAAAAAAAAAAAAAAAAAAAAAAAAAAAAAAAAAAAAAAAAAAAAAAAAAAAAAAAAAAAAAAAAAAAAAAAAAAAAAAAAAAAAAAAAAAAAAAAAAAAAAAAAAAAAAAAAAAAAAAAAAAAAAAAAAAAAAAAAAAAAAAAAAAAAAAAAAAAAAAAAAAAAAAAAAAAAAAAAAAAAAAAAAAAAAAAAAAAAAAAAAAAAAAAAAAAAAAAAAAAAAAAAAAAAAAAAAAAAAAAAAAAAAAAAAAAAAAAAAAAAAAAAAAAAAAAAAAAAAAAAAAAAAAAAAAAAAAAAAAAAAAAAAAAAAAAAAAAAAAAAAAAAAAAAAAAAAAAAAAAAAAAAAAAAAAAAAAAAAAAAAAAAAAAAAAAAAAAAAAAAAAAAAAAAAAAAAAAAAAAAAAAAAAAAAAAAAAAAAAAAAAAAAAAAAAAAAAAAAAAAAAAAAAAAAAAAAAAAAAAAAAAAAAAAAAAAAAAAAAAAAAAAAAAAAAAAAAAAAAAAAAAAAAAAAAAAAAAAAAAAAAAAAAAAAAAAAAAAAAAAAAAAAAAAAAAAAAAAAAAAAAAAAAAAAAAAAAAAAAAAAAAAAAAAAAAAAAAAAAAAAAAAAAAAAAAAAAAAAAAAAAAAAAAAAAAAAAAAAAAAAAAAAAAAAAAAAAAAAAAAAAAAAAAAAAAAAAAAAAAAAAAAAAAAAAAAAAAAAAAAAAAAAAAAAAAAAAAAAAAAAAAAAAAAAAAAAAAAAAAAAAAAAAAAAAAAAAAAAAAAAAAAAAAAAAAAAAAAAAAAAAAAAAAAAAAAAAAAAAAAAAAAAAAAAAAAAAAAAAAAAAAAAAAAAAAAAAAAAAAAAAAAAAAAAAAAAAAAAAAAAAAAAAAAAAAAAAAAAAAAAAAAAAAAAAAAAAAAAAAAAAAAAAAAAAAAAAAAAAAAAAAAAAAAAAAAAAAAAAAAAAAAAAAAAAAAAAAAAAAAAAAAAAAAAAAAAAAAAAAAAAAAAAAAAAAAAAAAAAAAAAAAAAAAAAAAAAAAAAAAAAAAAAAAAAAAAAAAAAAAAAAAAAAAAAAAAAAAAAAAAAAAAAAAAAAAAAAAAAAAAAAAAAAAAAAAAAAAAAAAAAAAAAAAAAAAAAAAAAAAAAAAAAAAAAAAAAAAAAAAAAAAAAAAAAAAAAAAAAAAAAAAAAAAAAAAAAAAAAAAAAAAAAAAAAAAAAAAAAAAAAAAAAAAAAAAAAAAAAAAAAAAAAAAAAAAAAAAAAAAAAAAAAAAAAAAAAAAAAAAAAAAAAAAAAAAAAAAAAAAAAAAAAAAAAAAAAAAAAAAAAAAAAAAAAAAAAAAAAAAAAAAAAAAAAAAAAAAAAAAAAAAAAAAAAAAAAAAAAAAAAAAAAAAAAAAAAAAAAAAAAAAAAAAAAAAAAAAAAAAAAAAAAAAAAAAAAAAAAAAAAAAAAAAAAAAAAAAAAAAAAAAAAAAAAAAAAAAAAAAAAAAAAAAAAAAAAAAAAAAAAAAAAAAAAAAAAAAAAAAAAAAAAAAAAAAAAAAAAAAAAAAAAAAAAAAAAAAAAAAAAAAAAAAAAAAAAAAAAAAAAAAAAAAAAAAAAAAAAAAAAAAAAAAAAAAAAAAAAAAAAAAAAAAAAAAAAAAAAAAAAAAAAAAAAAAAAAAPZYQBjvj3MNzZnmzSudHHjQqYQWylHLufGStCQDJ/dVe6jpT/Amwh8Jc4HcPwbCT+PL7D4AKXnbwpSrCIFbk0jwmYo=</c2pa:manifest></metadata>
<defs>
  <radialGradient id="vig" cx="50%" cy="45%" r="75%">
    <stop offset="0" stop-color="#2d4639"/>
    <stop offset="0.7" stop-color="#243a2f"/>
    <stop offset="1" stop-color="#182a21"/>
  </radialGradient>
  <filter id="grain" x="0" y="0" width="100%" height="100%">
    <feTurbulence type="fractalNoise" baseFrequency="0.85" numOctaves="2" seed="5" stitchTiles="stitch"/>
    <feColorMatrix type="matrix" values="0 0 0 0 1  0 0 0 0 0.9  0 0 0 0 0.8  0 0 0 0.14 0"/>
  </filter>
  <pattern id="grid" width="40" height="40" patternUnits="userSpaceOnUse">
    <path d="M40 0H0V40" fill="none" stroke="#efe3cf" stroke-width="0.5" opacity="0.07"/>
  </pattern>
  <pattern id="hatch" width="6" height="6" patternUnits="userSpaceOnUse" patternTransform="rotate(45)">
    <line x1="0" y1="0" x2="0" y2="6" stroke="#efe3cf" stroke-width="0.8" opacity="0.9"/>
  </pattern>
</defs>
<rect width="800" height="500" fill="url(#vig)"/>
<rect width="800" height="500" fill="url(#grid)"/>
<g fill="none" stroke="#efe3cf" stroke-linecap="round" stroke-linejoin="round" font-family="ui-monospace, 'SFMono-Regular', Menlo, Consolas, monospace" font-size="9" letter-spacing="0.5">
<path d="M322 60h156a22 22 0 0 1 22 22v336a22 22 0 0 1 -22 22h-156a22 22 0 0 1 -22 -22v-336a22 22 0 0 1 22 -22z" stroke-width="1.4" opacity="0.92"/>
<path d="M312 86h176v328h-176z" stroke-width="0.9" opacity="0.6"/>
<path d="M382.0 73h36" stroke-width="0.6" opacity="0.6"/>
<circle cx="400.0" cy="426" r="4" stroke-width="0.8" opacity="0.6"/>
<path d="M400.0 414V260C430.0 250 460 270 488 245V414z" fill="#243a2f" stroke="none" opacity="0.8"/>
<path d="M400.0 414V260C430.0 250 460 270 488 245V414z" stroke-width="1.1" opacity="0.8"/>
<path d="M400.0 414V260C430.0 250 460 270 488 245V414z" fill="url(#hatch)" stroke="none" opacity="0.25"/>
<path d="M416.0 290h40v40h-40z" stroke-width="0.9" opacity="0.6"/>
<path d="M470.0 310h28v28h-28z" stroke-width="0.9" opacity="0.6"/>
<path d="M420.0 360h70v22h-70z" stroke-width="0.9" opacity="0.6"/>
<path d="M416.0 330v12" stroke-width="0.6" opacity="0.6"/>
<path d="M416.0 290v-10" stroke-width="0.6" opacity="0.6"/>
<path d="M423.0 330v12" stroke-width="0.6" opacity="0.6"/>
<path d="M423.0 290v-10" stroke-width="0.6" opacity="0.6"/>
<path d="M430.0 330v12" stroke-width="0.6" opacity="0.6"/>
<path d="M430.0 290v-10" stroke-width="0.6" opacity="0.6"/>
<path d="M437.0 330v12" stroke-width="0.6" opacity="0.6"/>
<path d="M437.0 290v-10" stroke-width="0.6" opacity="0.6"/>
<path d="M444.0 330v12" stroke-width="0.6" opacity="0.6"/>
<path d="M444.0 290v-10" stroke-width="0.6" opacity="0.6"/>
<path d="M451.0 330v12" stroke-width="0.6" opacity="0.6"/>
<path d="M451.0 290v-10" stroke-width="0.6" opacity="0.6"/>
<path d="M456.0 310h14 M456.0 320h14 M484.0 338v22 M436.0 382v12h50v-12" stroke-width="0.6" opacity="0.6"/>
<circle cx="470.0" cy="410" r="10" stroke-width="0.9" opacity="0.7"/>
<circle cx="470.0" cy="410" r="3" stroke-width="0.9" opacity="0.7"/>
<path d="M323 107h26v26h-26z" stroke-width="0.6" opacity="0.55"/>
<path d="M365 107h26v26h-26z" stroke-width="0.6" opacity="0.55"/>
<path d="M407 107h26v26h-26z" stroke-width="0.6" opacity="0.55"/>
<path d="M449 107h26v26h-26z" stroke-width="0.6" opacity="0.55"/>
<path d="M323 149h26v26h-26z" stroke-width="0.6" opacity="0.55"/>
<path d="M365 149h26v26h-26z" stroke-width="0.6" opacity="0.55"/>
<path d="M407 149h26v26h-26z" stroke-width="0.6" opacity="0.55"/>
<path d="M449 149h26v26h-26z" stroke-width="0.6" opacity="0.55"/>
<path d="M323 191h26v26h-26z" stroke-width="0.6" opacity="0.55"/>
<path d="M365 191h26v26h-26z" stroke-width="0.6" opacity="0.55"/>
<path d="M407 191h26v26h-26z" stroke-width="0.6" opacity="0.55"/>
<path d="M449 191h26v26h-26z" stroke-width="0.6" opacity="0.55"/>
<path d="M323 233h26v26h-26z" stroke-width="0.6" opacity="0.55"/>
<path d="M365 233h26v26h-26z" stroke-width="0.6" opacity="0.55"/>
<path d="M407 233h26v26h-26z" stroke-width="0.6" opacity="0.55"/>
<path d="M449 233h26v26h-26z" stroke-width="0.6" opacity="0.55"/>
<circle cx="137" cy="376" r="6" stroke-width="1.0" opacity="0.85"/>
<circle cx="137" cy="376" r="1.6" fill="#efe3cf" stroke="none" opacity="0.8"/>
<path d="M143 376C217 376 220 314.5 298 314.5" stroke-width="0.55" opacity="0.4"/>
<path d="M298 314.5l-7 -3v6z" stroke-width="0.6" opacity="0.7"/>
<circle cx="189" cy="328" r="6" stroke-width="1.0" opacity="0.85"/>
<circle cx="189" cy="328" r="1.6" fill="#efe3cf" stroke="none" opacity="0.8"/>
<path d="M195 328C269 328 220 278.5 298 278.5" stroke-width="0.55" opacity="0.4"/>
<path d="M298 278.5l-7 -3v6z" stroke-width="0.6" opacity="0.7"/>
<circle cx="137" cy="350" r="6" stroke-width="1.0" opacity="0.85"/>
<circle cx="137" cy="350" r="1.6" fill="#efe3cf" stroke="none" opacity="0.8"/>
<path d="M143 350C217 350 220 295.0 298 295.0" stroke-width="0.55" opacity="0.4"/>
<path d="M298 295.0l-7 -3v6z" stroke-width="0.6" opacity="0.7"/>
<circle cx="189" cy="390" r="6" stroke-width="1.0" opacity="0.85"/>
<circle cx="189" cy="390" r="1.6" fill="#efe3cf" stroke="none" opacity="0.8"/>
<path d="M195 390C269 390 220 325.0 298 325.0" stroke-width="0.55" opacity="0.4"/>
<path d="M298 325.0l-7 -3v6z" stroke-width="0.6" opacity="0.7"/>
<circle cx="104" cy="184" r="6" stroke-width="1.0" opacity="0.85"/>
<circle cx="104" cy="184" r="1.6" fill="#efe3cf" stroke="none" opacity="0.8"/>
<path d="M110 184C184 184 220 170.5 298 170.5" stroke-width="0.55" opacity="0.4"/>
<path d="M298 170.5l-7 -3v6z" stroke-width="0.6" opacity="0.7"/>
<circle cx="182" cy="352" r="6" stroke-width="1.0" opacity="0.85"/>
<circle cx="182" cy="352" r="1.6" fill="#efe3cf" stroke="none" opacity="0.8"/>
<path d="M188 352C262 352 220 296.5 298 296.5" stroke-width="0.55" opacity="0.4"/>
<path d="M298 296.5l-7 -3v6z" stroke-width="0.6" opacity="0.7"/>
<circle cx="140" cy="404" r="6" stroke-width="1.0" opacity="0.85"/>
<circle cx="140" cy="404" r="1.6" fill="#efe3cf" stroke="none" opacity="0.8"/>
<path d="M146 404C220 404 220 335.5 298 335.5" stroke-width="0.55" opacity="0.4"/>
<path d="M298 335.5l-7 -3v6z" stroke-width="0.6" opacity="0.7"/>
<circle cx="181" cy="185" r="6" stroke-width="1.0" opacity="0.85"/>
<circle cx="181" cy="185" r="1.6" fill="#efe3cf" stroke="none" opacity="0.8"/>
<path d="M187 185C261 185 220 171.25 298 171.25" stroke-width="0.55" opacity="0.4"/>
<path d="M298 171.25l-7 -3v6z" stroke-width="0.6" opacity="0.7"/>
<circle cx="92" cy="318" r="6" stroke-width="1.0" opacity="0.85"/>
<circle cx="92" cy="318" r="1.6" fill="#efe3cf" stroke="none" opacity="0.8"/>
<path d="M98 318C172 318 220 271.0 298 271.0" stroke-width="0.55" opacity="0.4"/>
<path d="M298 271.0l-7 -3v6z" stroke-width="0.6" opacity="0.7"/>
<circle cx="118" cy="162" r="6" stroke-width="1.0" opacity="0.85"/>
<circle cx="118" cy="162" r="1.6" fill="#efe3cf" stroke="none" opacity="0.8"/>
<path d="M124 162C198 162 220 154.0 298 154.0" stroke-width="0.55" opacity="0.4"/>
<path d="M298 154.0l-7 -3v6z" stroke-width="0.6" opacity="0.7"/>
<circle cx="91" cy="365" r="6" stroke-width="1.0" opacity="0.85"/>
<circle cx="91" cy="365" r="1.6" fill="#efe3cf" stroke="none" opacity="0.8"/>
<path d="M97 365C171 365 220 306.25 298 306.25" stroke-width="0.55" opacity="0.4"/>
<path d="M298 306.25l-7 -3v6z" stroke-width="0.6" opacity="0.7"/>
<circle cx="183" cy="111" r="6" stroke-width="1.0" opacity="0.85"/>
<circle cx="183" cy="111" r="1.6" fill="#efe3cf" stroke="none" opacity="0.8"/>
<path d="M189 111C263 111 220 115.75 298 115.75" stroke-width="0.55" opacity="0.4"/>
<path d="M298 115.75l-7 -3v6z" stroke-width="0.6" opacity="0.7"/>
<circle cx="156" cy="292" r="6" stroke-width="1.0" opacity="0.85"/>
<circle cx="156" cy="292" r="1.6" fill="#efe3cf" stroke="none" opacity="0.8"/>
<path d="M162 292C236 292 220 251.5 298 251.5" stroke-width="0.55" opacity="0.4"/>
<path d="M298 251.5l-7 -3v6z" stroke-width="0.6" opacity="0.7"/>
<circle cx="137" cy="405" r="6" stroke-width="1.0" opacity="0.85"/>
<circle cx="137" cy="405" r="1.6" fill="#efe3cf" stroke="none" opacity="0.8"/>
<path d="M143 405C217 405 220 336.25 298 336.25" stroke-width="0.55" opacity="0.4"/>
<path d="M298 336.25l-7 -3v6z" stroke-width="0.6" opacity="0.7"/>
<path d="M137 376L189 390" stroke-width="0.6" opacity="0.25" stroke-dasharray="3 4"/>
<path d="M189 328L182 352" stroke-width="0.6" opacity="0.25" stroke-dasharray="3 4"/>
<path d="M137 350L181 185" stroke-width="0.6" opacity="0.25" stroke-dasharray="3 4"/>
<path d="M104 184L118 162" stroke-width="0.6" opacity="0.25" stroke-dasharray="3 4"/>
<path d="M140 404L183 111" stroke-width="0.6" opacity="0.25" stroke-dasharray="3 4"/>
<path d="M92 318L156 292" stroke-width="0.6" opacity="0.25" stroke-dasharray="3 4"/>
<path d="M91 365L137 405" stroke-width="0.6" opacity="0.25" stroke-dasharray="3 4"/>
<text x="80" y="470" fill="#efe3cf" stroke="none" opacity="0.6" text-anchor="start">AGENT SWARM  N=14</text>
<path d="M640 120C680 140 700 130 710 128V200C710 250 670 280 640 295C610 280 570 250 570 200V128C580 130 600 140 640 120Z" stroke-width="1.4" opacity="0.92"/>
<path d="M640 110V310" stroke-width="0.6" opacity="0.32" stroke-dasharray="3 4"/>
<path d="M618 190h44v38h-44z" stroke-width="0.9" opacity="0.6"/>
<path d="M627 190v-16a13 13 0 0 1 26 0v16" stroke-width="0.9" opacity="0.6"/>
<circle cx="640" cy="206" r="4" stroke-width="0.9" opacity="0.8"/>
<path d="M640 210v10" stroke-width="0.6" opacity="0.8"/>
<path d="M508 160H562" stroke-width="0.6" opacity="0.5"/>
<path d="M562 160l-7 -3v6z" stroke-width="0.6" opacity="0.7"/>
<path d="M508 190H562" stroke-width="0.6" opacity="0.5"/>
<path d="M562 190l-7 -3v6z" stroke-width="0.6" opacity="0.7"/>
<path d="M508 220H562" stroke-width="0.6" opacity="0.5"/>
<path d="M562 220l-7 -3v6z" stroke-width="0.6" opacity="0.7"/>
<path d="M530 60V440" stroke-width="0.6" opacity="0.45"/><path d="M525 60H535 M525 440H535" stroke-width="0.6" opacity="0.45"/><path d="M530 60l-2.5 6h5z M530 440l-2.5 -6h5z" stroke-width="0.6" opacity="0.6"/><text x="536" y="253.0" fill="#efe3cf" stroke="none" opacity="0.7">H</text>
<path d="M300 462H500" stroke-width="0.6" opacity="0.45"/><path d="M300 457V467 M500 457V467" stroke-width="0.6" opacity="0.45"/><path d="M300 462l6 -2.5v5z M500 462l-6 -2.5v5z" stroke-width="0.6" opacity="0.6"/><text x="400.0" y="457" fill="#efe3cf" stroke="none" opacity="0.7" text-anchor="middle">W</text>
<path d="M300 440V470 M500 440V470" stroke-width="0.6" opacity="0.32" stroke-dasharray="3 4"/>
<text x="640" y="340" fill="#efe3cf" stroke="none" opacity="0.55" text-anchor="middle">DEFENCE UNDER TEST</text>
<text x="760" y="470" fill="#efe3cf" stroke="none" opacity="0.45" text-anchor="end">SHEET 2/3</text>
</g>
<rect width="800" height="500" filter="url(#grain)" opacity="0.9"/>
</svg>
